# xmcd
# Copyright (C) 1995-1998 Ti Kan
#
# Track frame offsets:
#       150
#       19971
#       38521
#       54886
#       67151
#       88141
#       105538
#       121599
#       140184
#       151084
#       172668
#
# Disc length: 2446 seconds
#
# Revision: 0
# Processed by: cddbd v1.5.2PL0 Copyright (c) Steve Scherf et al.
# Submitted via: CD-Transfer v1.0
#
DISCID=84098c0b
DTITLE=En Face - S. Bastijanèiæ, M. Vidoviæ
DYEAR=09
DGENRE=
TTITLE0=Labirint
TTITLE1=Paranormalan
TTITLE2=Afrodita
TTITLE3=Kad San Zapoène Tu
TTITLE4=To Sam Ja
TTITLE5=Sreæa
TTITLE6=Kad Treba, Ja Sam Tu
TTITLE7=Tajni Kljuè
TTITLE8=Ritam
TTITLE9=Pusti Me Da Spavam
TTITLE10=Otvori Vrata
EXTD=
EXTT0=
EXTT1=
EXTT2=
EXTT3=
EXTT4=
EXTT5=
EXTT6=
EXTT7=
EXTT8=
EXTT9=
EXTT10=
PLAYORDER=
